#!OML:ASF H:\Terrain\Patient Classification 1\Animal1\Tuesday\Animal1.ASF
:FULLY-SPECIFIED
:DEGREES
2151
root 11.7342 15.1944 -13.2136 36.608 -33.2608 -13.3504
lowerback 11.1054 1.8152 8.67771
upperback -9.0129 4.66937 4.58571
thorax -16.2916 1.47928 -0.760296
lowerneck 1.2167 23.9333 4.85112
upperneck -11.3001 31.4963 -12.3979
head -1.03529 15.9853 -4.33705
rclavicle 2.00773e-014 -7.15625e-014
rhumerus -60.6613 13.7103 -96.8588
rradius 66.8009
rwrist -12.1993
rhand -26.2198 36.2589
rfingers 7.12502
rthumb 0.333419 6.27938
lclavicle 2.00773e-014 -7.15625e-014
lhumerus -49.0851 -18.5277 103.015
lradius 38.7908
lwrist -35.7023
lhand -7.45136 41.2736
lfingers 7.12502
lthumb 18.4367 70.4199
rfemur -58.0358 17.0507 30.9599
rtibia 45.2761
rfoot -14.5843 -6.32649
rtoes -6.73372
lfemur -50.2015 19.1062 -3.43984
ltibia 57.8117
lfoot -29.7468 18.26
ltoes -7.87439
2152
root 11.7322 15.2003 -13.2148 36.6122 -33.1936 -13.2233
lowerback 11.0085 1.77157 8.64168
upperback -9.02517 4.58789 4.56439
thorax -16.2491 1.44611 -0.741863
lowerneck 1.17284 23.942 4.92235
upperneck -11.2571 31.5091 -12.4514
head -0.992324 15.9901 -4.34299
rclavicle -3.75703e-014 -1.82882e-014
rhumerus -60.6434 13.7507 -96.8975
rradius 66.8415
rwrist -12.2354
rhand -26.2623 35.8497
rfingers 7.12502
rthumb 0.292456 5.87014
lclavicle -3.75703e-014 -1.82882e-014
lhumerus -49.0462 -18.5808 102.997
lradius 38.8107
lwrist -35.6252
lhand -7.43251 41.2131
lfingers 7.12502
lthumb 18.4548 70.3577
rfemur -58.1313 16.9933 30.8639
rtibia 45.2802
rfoot -14.6646 -6.47153
rtoes -7.55723
lfemur -50.2673 18.9376 -3.50164
ltibia 57.7426
lfoot -29.7522 18.2166
ltoes -7.28423
2153
root 11.7327 15.2 -13.2179 36.5974 -33.2142 -13.1126
lowerback 10.9715 1.76475 8.53219
upperback -9.01972 4.54923 4.53286
thorax -16.2231 1.43993 -0.707641
lowerneck 1.02873 23.9416 4.98722
upperneck -11.0969 31.5157 -12.4287
head -0.909213 15.9857 -4.30311
rclavicle -3.33958e-014 1.59028e-015
rhumerus -60.5791 13.7217 -96.9131
rradius 66.8214
rwrist -12.2493
rhand -26.2079 35.9839
rfingers 7.12502
rthumb 0.344917 6.00446
lclavicle -3.33958e-014 1.59028e-015
lhumerus -49.0013 -18.6127 102.96
lradius 38.7932
lwrist -35.5958
lhand -7.35856 41.2071
lfingers 7.12502
lthumb 18.5259 70.345
rfemur -58.2478 17.0029 30.7273
rtibia 45.3152
rfoot -14.5984 -6.41572
rtoes -7.18369
lfemur -50.307 18.858 -3.60283
ltibia 57.6923
lfoot -29.686 18.2981
ltoes -7.51285
2154
root 11.7318 15.1992 -13.2176 36.5536 -33.2769 -13.0189
lowerback 10.9553 1.76591 8.4194
upperback -9.02761 4.52782 4.52329
thorax -16.2289 1.44211 -0.650988
lowerneck 1.10295 23.9413 4.95732
upperneck -11.1005 31.5165 -12.4279
head -0.926792 15.9889 -4.31248
rclavicle -9.58142e-014 -1.59028e-014
rhumerus -60.6102 13.6948 -96.9066
rradius 66.762
rwrist -12.2262
rhand -26.1379 36.4217
rfingers 7.12502
rthumb 0.41258 6.44232
lclavicle -9.58142e-014 -1.59028e-014
lhumerus -49.0179 -18.5495 102.944
lradius 38.7572
lwrist -35.6813
lhand -7.31405 41.2051
lfingers 7.12502
lthumb 18.5688 70.3388
rfemur -58.2923 17.0057 30.6107
rtibia 45.3542
rfoot -14.5525 -6.20985
rtoes -5.95318
lfemur -50.3008 18.8571 -3.72713
ltibia 57.6627
lfoot -29.5662 18.4879
ltoes -8.60325
2155
root 11.7297 15.1993 -13.2171 36.5275 -33.2606 -12.9863
lowerback 10.9703 1.74923 8.42261
upperback -9.04884 4.50948 4.5223
thorax -16.2665 1.43133 -0.649511
lowerneck 1.22808 23.9476 4.98443
upperneck -11.1296 31.5263 -12.4814
head -0.941845 15.9982 -4.34873
rclavicle 4.94974e-014 -2.70347e-014
rhumerus -60.6906 13.6627 -96.9055
rradius 66.76
rwrist -12.2179
rhand -26.0525 36.5865
rfingers 7.12502
rthumb 0.495067 6.6073
lclavicle 4.94974e-014 -2.70347e-014
lhumerus -49.0083 -18.4515 102.872
lradius 38.7149
lwrist -35.8696
lhand -7.09153 41.233
lfingers 7.12502
lthumb 18.7828 70.3462
rfemur -58.2725 16.9963 30.5915
rtibia 45.3565
rfoot -14.5017 -6.32942
rtoes -6.46506
lfemur -50.2976 18.8288 -3.7493
ltibia 57.6574
lfoot -29.5045 18.6554
ltoes -9.20044
2156
root 11.7281 15.2002 -13.2164 36.4955 -33.2022 -13.1093
lowerback 11.1072 1.73906 8.53318
upperback -9.0269 4.53671 4.5552
thorax -16.3245 1.43136 -0.684097
lowerneck 1.26487 23.9539 5.10179
upperneck -11.1135 31.5363 -12.6075
head -0.900652 16.0049 -4.39106
rclavicle 1.59028e-015 -4.6118e-014
rhumerus -60.6967 13.6302 -96.9115
rradius 66.755
rwrist -12.2828
rhand -26.0187 36.8321
rfingers 7.12502
rthumb 0.527687 6.85301
lclavicle 1.59028e-015 -4.6118e-014
lhumerus -49.012 -18.4068 102.855
lradius 38.7215
lwrist -35.9793
lhand -6.93912 41.4674
lfingers 7.12502
lthumb 18.9294 70.5663
rfemur -58.1033 17.0069 30.7571
rtibia 45.3069
rfoot -14.5166 -6.50228
rtoes -7.32511
lfemur -50.1796 18.8912 -3.59345
ltibia 57.6451
lfoot -29.517 18.5264
ltoes -8.43828
2157
root 11.7274 15.2019 -13.2158 36.5171 -33.1306 -13.3153
lowerback 11.2378 1.72757 8.71107
upperback -8.99911 4.57705 4.61794
thorax -16.3698 1.43233 -0.72445
lowerneck 1.29288 23.9515 5.17233
upperneck -11.0834 31.5335 -12.7275
head -0.86256 16.0063 -4.42719
rclavicle 1.48293e-013 1.59028e-014
rhumerus -60.6888 13.6399 -96.9212
rradius 66.7621
rwrist -12.3251
rhand -25.9733 36.8741
rfingers 7.12502
rthumb 0.571571 6.89509
lclavicle 1.48293e-013 1.59028e-014
lhumerus -49.0739 -18.3847 102.908
lradius 38.7673
lwrist -35.9049
lhand -7.13341 41.5901
lfingers 7.12502
lthumb 18.7425 70.7072
rfemur -57.9327 17.0501 30.97
rtibia 45.233
rfoot -14.6718 -6.33335
rtoes -6.47829
lfemur -50.07 18.9982 -3.36423
ltibia 57.6168
lfoot -29.4635 18.3933
ltoes -7.96012
